Sparks-Dotline-Thin.ufo
<glyph name="dollar" format="1">
	<unicode hex="0024"/>
	<advance width="440"/>
	<outline>
		<contour>
			<point x="252" y="203" type="line" smooth="yes"/>
			<point x="300" y="189"/>
			<point x="329" y="173"/>
			<point x="329" y="136" type="curve" smooth="yes"/>
			<point x="329" y="84"/>
			<point x="284" y="63"/>
			<point x="228" y="63" type="curve" smooth="yes"/>
			<point x="154" y="63"/>
			<point x="121" y="96"/>
			<point x="113" y="147" type="curve"/>
			<point x="35" y="147" type="line"/>
			<point x="40" y="52"/>
			<point x="123" y="-9"/>
			<point x="222" y="-9" type="curve" smooth="yes"/>
			<point x="324" y="-9"/>
			<point x="409" y="42"/>
			<point x="409" y="144" type="curve" smooth="yes"/>
			<point x="409" y="223"/>
			<point x="361" y="252"/>
			<point x="279" y="276" type="curve" smooth="yes"/>
			<point x="199" y="299" type="line" smooth="yes"/>
			<point x="155" y="312"/>
			<point x="133" y="332"/>
			<point x="133" y="367" type="curve"/>
			<point x="133" y="415"/>
			<point x="172" y="438"/>
			<point x="221" y="438" type="curve" smooth="yes"/>
			<point x="277" y="438"/>
			<point x="311" y="413"/>
			<point x="320" y="358" type="curve"/>
			<point x="404" y="358" type="line"/>
			<point x="396" y="456"/>
			<point x="323" y="509"/>
			<point x="225" y="509" type="curve" smooth="yes"/>
			<point x="129" y="509"/>
			<point x="52" y="460"/>
			<point x="52" y="368" type="curve"/>
			<point x="52" y="292"/>
			<point x="92" y="250"/>
			<point x="167" y="228" type="curve" smooth="yes"/>
		</contour>
		<contour>
			<point x="143" y="-80" type="line"/>
			<point x="204" y="-80" type="line"/>
			<point x="307" y="580" type="line"/>
			<point x="246" y="580" type="line"/>
		</contour>
	</outline>
</glyph>
<glyph name="asterisk" format="1">
	<unicode hex="002A"/>
	<advance width="306"/>
	<outline>
		<contour>
			<point x="52" y="341" type="line"/>
			<point x="128" y="396" type="line"/>
			<point x="120" y="301" type="line"/>
			<point x="185" y="301" type="line"/>
			<point x="177" y="396" type="line"/>
			<point x="253" y="340" type="line"/>
			<point x="286" y="396" type="line"/>
			<point x="200" y="436" type="line"/>
			<point x="285" y="475" type="line"/>
			<point x="253" y="532" type="line"/>
			<point x="177" y="476" type="line"/>
			<point x="185" y="570" type="line"/>
			<point x="120" y="570" type="line"/>
			<point x="128" y="476" type="line"/>
			<point x="53" y="531" type="line"/>
			<point x="20" y="474" type="line"/>
			<point x="104" y="436" type="line"/>
			<point x="20" y="397" type="line"/>
		</contour>
	</outline>
</glyph>
<glyph name="slash" format="1">
	<unicode hex="002F"/>
	<advance width="436"/>
	<outline>
		<contour>
			<point x="5" y="0" type="line"/>
			<point x="95" y="0" type="line"/>
			<point x="436" y="500" type="line"/>
			<point x="346" y="500" type="line"/>
		</contour>
	</outline>
</glyph>
<glyph name="four" format="1">
	<unicode hex="0034"/>
	<advance width="450"/>
	<outline>
		<contour>
			<point x="27" y="100" type="line"/>
			<point x="268" y="100" type="line"/>
			<point x="268" y="0" type="line"/>
			<point x="347" y="0" type="line"/>
			<point x="347" y="100" type="line"/>
			<point x="424" y="100" type="line"/>
			<point x="424" y="169" type="line"/>
			<point x="347" y="169" type="line"/>
			<point x="347" y="502" type="line"/>
			<point x="259" y="502" type="line"/>
			<point x="27" y="160" type="line"/>
		</contour>
		<contour>
			<point x="108" y="169" type="line"/>
			<point x="269" y="411" type="line"/>
			<point x="271" y="411" type="line"/>
			<point x="269" y="378"/>
			<point x="268" y="334"/>
			<point x="268" y="304" type="curve" smooth="yes"/>
			<point x="268" y="169" type="line"/>
		</contour>
	</outline>
</glyph>
<glyph name="five" format="1">
	<unicode hex="0035"/>
	<advance width="450"/>
	<outline>
		<contour>
			<point x="55" y="216" type="line"/>
			<point x="127" y="216" type="line"/>
			<point x="147" y="250"/>
			<point x="177" y="271"/>
			<point x="225" y="271" type="curve" smooth="yes"/>
			<point x="296" y="271"/>
			<point x="329" y="226"/>
			<point x="329" y="167" type="curve" smooth="yes"/>
			<point x="329" y="108"/>
			<point x="292" y="62"/>
			<point x="221" y="62" type="curve" smooth="yes"/>
			<point x="166" y="62"/>
			<point x="128" y="91"/>
			<point x="120" y="134" type="curve"/>
			<point x="40" y="134" type="line"/>
			<point x="43" y="103"/>
			<point x="58" y="70"/>
			<point x="74" y="50" type="curve" smooth="yes"/>
			<point x="104" y="13"/>
			<point x="153" y="-10"/>
			<point x="218" y="-10" type="curve" smooth="yes"/>
			<point x="331" y="-10"/>
			<point x="412" y="60"/>
			<point x="412" y="170" type="curve" smooth="yes"/>
			<point x="412" y="278"/>
			<point x="338" y="339"/>
			<point x="237" y="339" type="curve" smooth="yes"/>
			<point x="197" y="339"/>
			<point x="162" y="327"/>
			<point x="134" y="303" type="curve"/>
			<point x="132" y="303" type="line"/>
			<point x="142" y="428" type="line"/>
			<point x="388" y="428" type="line"/>
			<point x="388" y="500" type="line"/>
			<point x="77" y="500" type="line"/>
		</contour>
	</outline>
</glyph>
<glyph name="eight" format="1">
	<unicode hex="0038"/>
	<advance width="450"/>
	<outline>
		<contour>
			<point x="418" y="141" type="curve" smooth="yes"/>
			<point x="418" y="194"/>
			<point x="381" y="237"/>
			<point x="335" y="254" type="curve"/>
			<point x="335" y="256" type="line"/>
			<point x="371" y="276"/>
			<point x="400" y="316"/>
			<point x="400" y="364" type="curve" smooth="yes"/>
			<point x="400" y="452"/>
			<point x="331" y="510"/>
			<point x="226" y="510" type="curve" smooth="yes"/>
			<point x="121" y="510"/>
			<point x="50" y="456"/>
			<point x="50" y="368" type="curve" smooth="yes"/>
			<point x="50" y="319"/>
			<point x="80" y="277"/>
			<point x="117" y="256" type="curve"/>
			<point x="117" y="254" type="line"/>
			<point x="70" y="236"/>
			<point x="32" y="194"/>
			<point x="32" y="139" type="curve" smooth="yes"/>
			<point x="32" y="40"/>
			<point x="113" y="-10"/>
			<point x="227" y="-10" type="curve" smooth="yes"/>
			<point x="341" y="-10"/>
			<point x="418" y="42"/>
		</contour>
		<contour>
			<point x="226" y="282" type="curve" smooth="yes"/>
			<point x="171" y="282"/>
			<point x="133" y="311"/>
			<point x="133" y="360" type="curve"/>
			<point x="133" y="409"/>
			<point x="169" y="440"/>
			<point x="224" y="440" type="curve" smooth="yes"/>
			<point x="279" y="440"/>
			<point x="317" y="411"/>
			<point x="317" y="362" type="curve" smooth="yes"/>
			<point x="317" y="313"/>
			<point x="281" y="282"/>
		</contour>
		<contour>
			<point x="224" y="223" type="curve" smooth="yes"/>
			<point x="290" y="223"/>
			<point x="331" y="193"/>
			<point x="331" y="142" type="curve" smooth="yes"/>
			<point x="331" y="91"/>
			<point x="292" y="59"/>
			<point x="226" y="59" type="curve" smooth="yes"/>
			<point x="160" y="59"/>
			<point x="119" y="89"/>
			<point x="119" y="140" type="curve"/>
			<point x="119" y="191"/>
			<point x="158" y="223"/>
		</contour>
	</outline>
</glyph>
<glyph name="at" format="1">
	<unicode hex="0040"/>
	<advance width="563"/>
	<outline>
		<contour>
			<point x="347" y="372" type="line"/>
			<point x="340" y="338" type="line"/>
			<point x="338" y="338" type="line"/>
			<point x="327" y="360"/>
			<point x="302" y="378"/>
			<point x="273" y="378" type="curve" smooth="yes"/>
			<point x="209" y="378"/>
			<point x="157" y="313"/>
			<point x="157" y="233" type="curve" smooth="yes"/>
			<point x="157" y="161"/>
			<point x="197" y="122"/>
			<point x="251" y="122" type="curve" smooth="yes"/>
			<point x="283" y="122"/>
			<point x="313" y="137"/>
			<point x="332" y="166" type="curve"/>
			<point x="334" y="166" type="line"/>
			<point x="346" y="139"/>
			<point x="370" y="122"/>
			<point x="411" y="122" type="curve" smooth="yes"/>
			<point x="497" y="122"/>
			<point x="545" y="177"/>
			<point x="545" y="274" type="curve" smooth="yes"/>
			<point x="545" y="424"/>
			<point x="440" y="512"/>
			<point x="290" y="512" type="curve" smooth="yes"/>
			<point x="142" y="512"/>
			<point x="20" y="394"/>
			<point x="20" y="245" type="curve" smooth="yes"/>
			<point x="20" y="90"/>
			<point x="125" y="-12"/>
			<point x="280" y="-12" type="curve" smooth="yes"/>
			<point x="330" y="-12"/>
			<point x="388" y="2"/>
			<point x="420" y="21" type="curve"/>
			<point x="401" y="72" type="line"/>
			<point x="365" y="56"/>
			<point x="323" y="48"/>
			<point x="280" y="48" type="curve" smooth="yes"/>
			<point x="159" y="48"/>
			<point x="87" y="128"/>
			<point x="87" y="245" type="curve"/>
			<point x="87" y="360"/>
			<point x="174" y="452"/>
			<point x="289" y="452" type="curve"/>
			<point x="410" y="452"/>
			<point x="480" y="386"/>
			<point x="480" y="267" type="curve" smooth="yes"/>
			<point x="480" y="205"/>
			<point x="455" y="176"/>
			<point x="416" y="176" type="curve" smooth="yes"/>
			<point x="393" y="176"/>
			<point x="382" y="188"/>
			<point x="382" y="210" type="curve" smooth="yes"/>
			<point x="382" y="221"/>
			<point x="383" y="233"/>
			<point x="385" y="246" type="curve" smooth="yes"/>
			<point x="403" y="372" type="line"/>
		</contour>
		<contour>
			<point x="265" y="178" type="curve" smooth="yes"/>
			<point x="235" y="178"/>
			<point x="220" y="200"/>
			<point x="220" y="233" type="curve"/>
			<point x="220" y="288"/>
			<point x="246" y="322"/>
			<point x="283" y="322" type="curve" smooth="yes"/>
			<point x="311" y="322"/>
			<point x="327" y="297"/>
			<point x="327" y="265" type="curve" smooth="yes"/>
			<point x="327" y="206"/>
			<point x="302" y="178"/>
		</contour>
	</outline>
</glyph>
<glyph name="underscore" format="1">
	<unicode hex="005F"/>
	<advance width="450"/>
	<outline>
		<contour>
			<point x="25" y="-60" type="line"/>
			<point x="425" y="-60" type="line"/>
			<point x="425" y="0" type="line"/>
			<point x="25" y="0" type="line"/>
		</contour>
	</outline>
</glyph>
<glyph name="grave" format="1">
	<unicode hex="0060"/>
	<advance width="271"/>
	<outline>
		<contour>
			<point x="154" y="560" type="line"/>
			<point x="221" y="560" type="line"/>
			<point x="154" y="670" type="line"/>
			<point x="50" y="670" type="line"/>
		</contour>
	</outline>
</glyph>
<glyph name="c" format="1">
	<unicode hex="0063"/>
	<advance width="473"/>
	<outline>
		<contour>
			<point x="457" y="156" type="curve"/>
			<point x="369" y="156" type="line"/>
			<point x="354" y="100"/>
			<point x="321" y="66"/>
			<point x="252" y="66" type="curve" smooth="yes"/>
			<point x="165" y="66"/>
			<point x="112" y="132"/>
			<point x="112" y="248" type="curve"/>
			<point x="112" y="365"/>
			<point x="165" y="434"/>
			<point x="252" y="434" type="curve" smooth="yes"/>
			<point x="321" y="434"/>
			<point x="358" y="396"/>
			<point x="368" y="339" type="curve"/>
			<point x="455" y="339" type="line"/>
			<point x="444" y="445"/>
			<point x="366" y="510"/>
			<point x="256" y="510" type="curve" smooth="yes"/>
			<point x="125" y="510"/>
			<point x="26" y="423"/>
			<point x="26" y="252" type="curve" smooth="yes"/>
			<point x="26" y="82"/>
			<point x="117" y="-10"/>
			<point x="248" y="-10" type="curve" smooth="yes"/>
			<point x="357" y="-10"/>
			<point x="437" y="49"/>
		</contour>
	</outline>
</glyph>
<glyph name="d" format="1">
	<unicode hex="0064"/>
	<advance width="462"/>
	<outline>
		<contour>
			<point x="52" y="0" type="line"/>
			<point x="178" y="0" type="line" smooth="yes"/>
			<point x="339" y="0"/>
			<point x="436" y="80"/>
			<point x="436" y="250" type="curve" smooth="yes"/>
			<point x="436" y="421"/>
			<point x="346" y="500"/>
			<point x="184" y="500" type="curve" smooth="yes"/>
			<point x="52" y="500" type="line"/>
		</contour>
		<contour>
			<point x="180" y="428" type="line" smooth="yes"/>
			<point x="303" y="428"/>
			<point x="353" y="377"/>
			<point x="353" y="254" type="curve" smooth="yes"/>
			<point x="353" y="132"/>
			<point x="305" y="72"/>
			<point x="182" y="72" type="curve" smooth="yes"/>
			<point x="134" y="72" type="line"/>
			<point x="134" y="428" type="line"/>
		</contour>
	</outline>
</glyph>
<glyph name="j" format="1">
	<unicode hex="006A"/>
	<advance width="266"/>
	<outline>
		<contour>
			<point x="133" y="161" type="line" smooth="yes"/>
			<point x="133" y="94"/>
			<point x="116" y="66"/>
			<point x="57" y="66" type="curve" smooth="yes"/>
			<point x="45" y="66"/>
			<point x="24" y="67"/>
			<point x="10" y="69" type="curve"/>
			<point x="10" y="-7" type="line"/>
			<point x="25" y="-9"/>
			<point x="44" y="-10"/>
			<point x="59" y="-10" type="curve" smooth="yes"/>
			<point x="170" y="-10"/>
			<point x="216" y="28"/>
			<point x="216" y="145" type="curve" smooth="yes"/>
			<point x="216" y="500" type="line"/>
			<point x="133" y="500" type="line"/>
		</contour>
	</outline>
</glyph>
<glyph name="p" format="1">
	<unicode hex="0070"/>
	<advance width="431"/>
	<outline>
		<contour>
			<point x="225" y="428" type="line" smooth="yes"/>
			<point x="299" y="428"/>
			<point x="330" y="397"/>
			<point x="330" y="342" type="curve" smooth="yes"/>
			<point x="330" y="286"/>
			<point x="299" y="256"/>
			<point x="225" y="256" type="curve" smooth="yes"/>
			<point x="134" y="256" type="line"/>
			<point x="134" y="428" type="line"/>
		</contour>
		<contour>
			<point x="238" y="500" type="curve" smooth="yes"/>
			<point x="52" y="500" type="line"/>
			<point x="52" y="0" type="line"/>
			<point x="134" y="0" type="line"/>
			<point x="134" y="184" type="line"/>
			<point x="238" y="184" type="line" smooth="yes"/>
			<point x="355" y="184"/>
			<point x="416" y="244"/>
			<point x="416" y="342" type="curve" smooth="yes"/>
			<point x="416" y="440"/>
			<point x="355" y="500"/>
		</contour>
	</outline>
</glyph>
<glyph name="y" format="1">
	<unicode hex="0079"/>
	<advance width="428"/>
	<outline>
		<contour>
			<point x="173" y="0" type="line"/>
			<point x="256" y="0" type="line"/>
			<point x="256" y="197" type="line"/>
			<point x="438" y="500" type="line"/>
			<point x="347" y="500" type="line"/>
			<point x="279" y="386" type="line" smooth="yes"/>
			<point x="254" y="344"/>
			<point x="232" y="305"/>
			<point x="215" y="273" type="curve"/>
			<point x="213" y="273" type="line"/>
			<point x="197" y="304"/>
			<point x="175" y="343"/>
			<point x="150" y="386" type="curve" smooth="yes"/>
			<point x="84" y="500" type="line"/>
			<point x="-10" y="500" type="line"/>
			<point x="173" y="195" type="line"/>
		</contour>
	</outline>
</glyph>
<glyph name="braceleft" format="1">
	<unicode hex="007B"/>
	<advance width="300"/>
	<outline>
		<contour>
			<point x="57" y="217" type="line"/>
			<point x="90" y="213"/>
			<point x="107" y="196"/>
			<point x="107" y="161" type="curve" smooth="yes"/>
			<point x="107" y="115" type="line" smooth="yes"/>
			<point x="107" y="28"/>
			<point x="155" y="-16"/>
			<point x="268" y="-16" type="curve"/>
			<point x="268" y="51" type="line"/>
			<point x="204" y="51"/>
			<point x="185" y="80"/>
			<point x="185" y="129" type="curve" smooth="yes"/>
			<point x="185" y="182" type="line" smooth="yes"/>
			<point x="185" y="212"/>
			<point x="170" y="239"/>
			<point x="143" y="247" type="curve"/>
			<point x="170" y="255"/>
			<point x="185" y="282"/>
			<point x="185" y="312" type="curve" smooth="yes"/>
			<point x="185" y="365" type="line" smooth="yes"/>
			<point x="185" y="414"/>
			<point x="204" y="443"/>
			<point x="268" y="443" type="curve"/>
			<point x="268" y="510" type="line"/>
			<point x="155" y="510"/>
			<point x="107" y="466"/>
			<point x="107" y="379" type="curve" smooth="yes"/>
			<point x="107" y="333" type="line" smooth="yes"/>
			<point x="107" y="298"/>
			<point x="90" y="281"/>
			<point x="57" y="277" type="curve"/>
		</contour>
	</outline>
</glyph>
<glyph name="section" format="1">
	<unicode hex="00A7"/>
	<advance width="415"/>
	<outline>
		<contour>
			<point x="344" y="97" type="curve"/>
			<point x="344" y="117"/>
			<point x="339" y="134"/>
			<point x="330" y="148" type="curve"/>
			<point x="369" y="166"/>
			<point x="393" y="197"/>
			<point x="393" y="240" type="curve" smooth="yes"/>
			<point x="393" y="304"/>
			<point x="355" y="333"/>
			<point x="267" y="350" type="curve" smooth="yes"/>
			<point x="194" y="364" type="line" smooth="yes"/>
			<point x="158" y="371"/>
			<point x="143" y="382"/>
			<point x="143" y="407" type="curve"/>
			<point x="143" y="431"/>
			<point x="165" y="450"/>
			<point x="206" y="450" type="curve" smooth="yes"/>
			<point x="256" y="450"/>
			<point x="278" y="428"/>
			<point x="283" y="392" type="curve"/>
			<point x="353" y="392" type="line"/>
			<point x="348" y="469"/>
			<point x="287" y="510"/>
			<point x="209" y="510" type="curve" smooth="yes"/>
			<point x="126" y="510"/>
			<point x="71" y="466"/>
			<point x="71" y="403" type="curve"/>
			<point x="71" y="383"/>
			<point x="76" y="366"/>
			<point x="85" y="352" type="curve"/>
			<point x="46" y="334"/>
			<point x="22" y="303"/>
			<point x="22" y="260" type="curve" smooth="yes"/>
			<point x="22" y="196"/>
			<point x="60" y="167"/>
			<point x="148" y="150" type="curve" smooth="yes"/>
			<point x="221" y="136" type="line" smooth="yes"/>
			<point x="257" y="129"/>
			<point x="272" y="118"/>
			<point x="272" y="93" type="curve"/>
			<point x="272" y="69"/>
			<point x="250" y="50"/>
			<point x="209" y="50" type="curve" smooth="yes"/>
			<point x="159" y="50"/>
			<point x="137" y="72"/>
			<point x="132" y="108" type="curve"/>
			<point x="62" y="108" type="line"/>
			<point x="67" y="31"/>
			<point x="128" y="-10"/>
			<point x="206" y="-10" type="curve" smooth="yes"/>
			<point x="289" y="-10"/>
			<point x="344" y="34"/>
		</contour>
		<contour>
			<point x="162" y="215" type="line" smooth="yes"/>
			<point x="109" y="225"/>
			<point x="94" y="237"/>
			<point x="94" y="267" type="curve" smooth="yes"/>
			<point x="94" y="287"/>
			<point x="107" y="304"/>
			<point x="132" y="314" type="curve"/>
			<point x="146" y="307"/>
			<point x="162" y="302"/>
			<point x="180" y="299" type="curve" smooth="yes"/>
			<point x="253" y="285" type="line" smooth="yes"/>
			<point x="306" y="275"/>
			<point x="321" y="263"/>
			<point x="321" y="233" type="curve" smooth="yes"/>
			<point x="321" y="213"/>
			<point x="308" y="196"/>
			<point x="283" y="186" type="curve"/>
			<point x="269" y="193"/>
			<point x="253" y="198"/>
			<point x="235" y="201" type="curve" smooth="yes"/>
		</contour>
	</outline>
</glyph>
<glyph name="ae" format="1">
	<unicode hex="00E6"/>
	<advance width="618"/>
	<outline>
		<contour>
			<point x="298" y="0" type="line"/>
			<point x="591" y="0" type="line"/>
			<point x="591" y="72" type="line"/>
			<point x="380" y="72" type="line"/>
			<point x="380" y="219" type="line"/>
			<point x="552" y="219" type="line"/>
			<point x="552" y="291" type="line"/>
			<point x="380" y="291" type="line"/>
			<point x="380" y="428" type="line"/>
			<point x="585" y="428" type="line"/>
			<point x="585" y="500" type="line"/>
			<point x="298" y="500" type="line"/>
		</contour>
		<contour>
			<point x="105" y="98" type="line"/>
			<point x="350" y="98" type="line"/>
			<point x="350" y="170" type="line"/>
			<point x="105" y="170" type="line"/>
		</contour>
		<contour>
			<point x="-12" y="0" type="line"/>
			<point x="79" y="0" type="line"/>
			<point x="258" y="362" type="line" smooth="yes"/>
			<point x="267" y="381"/>
			<point x="277" y="405"/>
			<point x="283" y="422" type="curve"/>
			<point x="298" y="422" type="line"/>
			<point x="339" y="500" type="line"/>
			<point x="245" y="500" type="line"/>
		</contour>
	</outline>
</glyph>
<glyph name="dotaccent" format="1">
	<unicode hex="02D9"/>
	<advance width="200"/>
	<outline>
		<contour>
			<point x="50" y="670" type="line"/>
			<point x="50" y="570" type="line"/>
			<point x="150" y="570" type="line"/>
			<point x="150" y="670" type="line"/>
		</contour>
	</outline>
</glyph>
<glyph name="chart.dot" format="1">
	<advance width="170"/>
	<outline>
		<contour>
			<point x="85" y="-32" type="curve" smooth="yes"/>
			<point x="102" y="-32"/>
			<point x="117" y="-17"/>
			<point x="117" y="0" type="curve" smooth="yes"/>
			<point x="117" y="17"/>
			<point x="102" y="32"/>
			<point x="85" y="32" type="curve" smooth="yes"/>
			<point x="68" y="32"/>
			<point x="53" y="17"/>
			<point x="53" y="0" type="curve" smooth="yes"/>
			<point x="53" y="-17"/>
			<point x="68" y="-32"/>
		</contour>
	</outline>
</glyph>
<glyph name="line.up.067" format="1">
	<advance width="350"/>
	<outline>
		<contour>
			<point x="85" y="-32" type="line"/>
			<point x="435" y="437" type="line"/>
			<point x="435" y="501" type="line"/>
			<point x="85" y="32" type="line"/>
		</contour>
		<component base="chart.dot"/>
	</outline>
</glyph>
<glyph name="line.up.069" format="1">
	<advance width="350"/>
	<outline>
		<contour>
			<point x="109" y="0" type="line"/>
			<point x="459" y="483" type="line"/>
			<point x="411" y="483" type="line"/>
			<point x="61" y="0" type="line"/>
		</contour>
		<component base="chart.dot"/>
	</outline>
</glyph>
<glyph name="line.up.071" format="1">
	<advance width="350"/>
	<outline>
		<contour>
			<point x="108" y="0" type="line"/>
			<point x="458" y="497" type="line"/>
			<point x="412" y="497" type="line"/>
			<point x="62" y="0" type="line"/>
		</contour>
		<component base="chart.dot"/>
	</outline>
</glyph>
<glyph name="line.up.093" format="1">
	<advance width="350"/>
	<outline>
		<contour>
			<point x="107" y="0" type="line"/>
			<point x="457" y="651" type="line"/>
			<point x="413" y="651" type="line"/>
			<point x="63" y="0" type="line"/>
		</contour>
		<component base="chart.dot"/>
	</outline>
</glyph>
